<?xml version="1.0" encoding="UTF-8" standalone="no"?>
<!-- Created with Inkscape (http://www.inkscape.org/) -->

<svg
   xmlns:dc="http://purl.org/dc/elements/1.1/"
   xmlns:cc="http://creativecommons.org/ns#"
   xmlns:rdf="http://www.w3.org/1999/02/22-rdf-syntax-ns#"
   xmlns:svg="http://www.w3.org/2000/svg"
   xmlns="http://www.w3.org/2000/svg"
   version="1.1"
   width="22.000002"
   height="25"
   viewBox="0 0 22.000002 25"
   id="Calque_1"
   xml:space="preserve"><metadata
   id="metadata13"><rdf:RDF><cc:Work
       rdf:about=""><dc:format>image/svg+xml</dc:format><dc:type
         rdf:resource="http://purl.org/dc/dcmitype/StillImage" /><dc:title></dc:title></cc:Work></rdf:RDF></metadata><defs
   id="defs11">
	

		
	</defs>

<g
   transform="matrix(0.37987129,0,0,0.37987129,0.23178954,1.2789305)"
   id="g3"
   style="fill:#000;fill-opacity:1"><path
     d="m 52.218,25.852 h -7.512 v -7.51 c 0,-0.573 -0.465,-1.039 -1.037,-1.039 H 41.53 c -0.576,0 -1.041,0.466 -1.041,1.039 v 7.51 h -7.512 c -0.572,0 -1.039,0.467 -1.039,1.041 v 2.139 c 0,0.574 0.467,1.039 1.039,1.039 h 7.512 v 7.514 c 0,0.574 0.465,1.039 1.041,1.039 h 2.139 c 0.572,0 1.037,-0.465 1.037,-1.039 V 30.07 h 7.512 c 0.572,0 1.039,-0.465 1.039,-1.039 v -2.139 c 0,-0.574 -0.467,-1.04 -1.039,-1.04 z"
     id="path5"
     style="fill:#000;fill-opacity:1" /><path
     d="m 26.974,32.438 c -1.58,-1.119 -3.016,-2.76 -3.041,-3.264 0,-0.918 0.082,-1.357 2.141,-2.961 2.662,-2.084 4.128,-4.824 4.128,-7.719 0,-2.625 -0.802,-4.957 -2.167,-6.595 h 1.059 c 0.219,0 0.434,-0.068 0.609,-0.196 L 32.658,9.562 C 33.025,9.299 33.179,8.83 33.039,8.401 32.898,7.973 32.502,7.681 32.051,7.681 H 18.835 c -1.446,0 -2.915,0.255 -4.357,0.751 -4.816,1.661 -8.184,5.765 -8.184,9.978 0,5.969 4.624,10.493 10.805,10.635 -0.121,0.473 -0.182,0.939 -0.182,1.396 0,0.92 0.233,1.791 0.713,2.633 -0.056,0 -0.11,0 -0.17,0 -5.892,0 -11.21,2.891 -13.229,7.193 -0.526,1.119 -0.794,2.25 -0.794,3.367 0,1.086 0.279,2.131 0.826,3.113 1.269,2.27 3.994,4.031 7.677,4.961 1.901,0.48 3.944,0.725 6.065,0.725 1.906,0 3.723,-0.246 5.403,-0.732 5.238,-1.521 8.625,-5.377 8.625,-9.828 -0.001,-4.271 -1.374,-6.828 -5.059,-9.435 z m -16.691,9.777 c 0,-3.107 3.947,-5.832 8.446,-5.832 h 0.121 c 0.979,0.012 1.934,0.156 2.834,0.432 0.309,0.213 0.607,0.416 0.893,0.611 2.084,1.42 3.461,2.357 3.844,3.861 0.09,0.379 0.135,0.758 0.135,1.125 0,3.869 -2.885,5.83 -8.578,5.83 -4.315,0 -7.695,-2.646 -7.695,-6.027 z m 4.094,-29.357 c 0.703,-0.803 1.624,-1.227 2.658,-1.227 l 0.117,0.002 c 2.921,0.086 5.716,3.341 6.23,7.256 0.289,2.192 -0.199,4.253 -1.301,5.509 -0.705,0.805 -1.613,1.229 -2.689,1.229 0,0 0,0 -0.002,0 h -0.047 c -2.861,-0.088 -5.716,-3.467 -6.227,-7.377 -0.287,-2.186 0.173,-4.151 1.261,-5.392 z"
     id="path7-1"
     style="fill:#000;fill-opacity:1" /></g></svg>