<?xml version="1.0" encoding="UTF-8" standalone="no"?>
<!-- Created with Inkscape (http://www.inkscape.org/) -->

<svg
   xmlns:dc="http://purl.org/dc/elements/1.1/"
   xmlns:cc="http://creativecommons.org/ns#"
   xmlns:rdf="http://www.w3.org/1999/02/22-rdf-syntax-ns#"
   xmlns:svg="http://www.w3.org/2000/svg"
   xmlns="http://www.w3.org/2000/svg"
   version="1.1"
   width="22.000002"
   height="25"
   viewBox="0 0 22.000002 25"
   id="Calque_1"
   xml:space="preserve"><metadata
   id="metadata13"><rdf:RDF><cc:Work
       rdf:about=""><dc:format>image/svg+xml</dc:format><dc:type
         rdf:resource="http://purl.org/dc/dcmitype/StillImage" /><dc:title></dc:title></cc:Work></rdf:RDF></metadata><defs
   id="defs11">
	

		
	</defs>

<path
   d="m 17.799501,5.3139998 -1.727,0 0,-3.511 c 0,-0.99400002 -0.835,-1.80299999 -1.86,-1.80299999 l -8.192,0 c -1.026,0 -1.86,0.80899997 -1.86,1.80299999 l 0,3.512 c -0.919,0.02 -1.66,0.751 -1.66,1.646 l 0,7.1380002 c 0,0.896 0.741,1.627 1.66,1.647 l 0,2.438 c 0,0.994 0.834,1.803 1.86,1.803 l 8.192,0 c 1.025,0 1.86,-0.809 1.86,-1.803 l 0,-2.438 1.727,0 c 0.938,0 1.7,-0.739 1.7,-1.647 l 0,-7.1380002 c 0,-0.908 -0.763,-1.647 -1.7,-1.647 z m -3.723,12.7400002 -7.921,0 0,-6.557 7.921,0 z m 0,-12.1970002 -7.921,0 0,-3.923 7.921,0 z m 3.708,3.075 -1.385,0 0,-1.342 1.385,0 z"
   id="path7"
   style="fill:#000" /></svg>