<?xml version="1.0" encoding="UTF-8" standalone="no"?>
<!-- Created with Inkscape (http://www.inkscape.org/) -->

<svg
   xmlns:dc="http://purl.org/dc/elements/1.1/"
   xmlns:cc="http://creativecommons.org/ns#"
   xmlns:rdf="http://www.w3.org/1999/02/22-rdf-syntax-ns#"
   xmlns:svg="http://www.w3.org/2000/svg"
   xmlns="http://www.w3.org/2000/svg"
   version="1.1"
   width="22.000002"
   height="25"
   viewBox="0 0 22.000002 25"
   id="Calque_1"
   xml:space="preserve"><metadata
   id="metadata13"><rdf:RDF><cc:Work
       rdf:about=""><dc:format>image/svg+xml</dc:format><dc:type
         rdf:resource="http://purl.org/dc/dcmitype/StillImage" /><dc:title></dc:title></cc:Work></rdf:RDF></metadata><defs
   id="defs11">
	

		
	</defs>

<path
   d="m 5.2420008,3.7140937 c -1.115,0 -1.844,0.728 -1.844,1.684 0,0.936 0.707,1.6850001 1.801,1.6850001 l 0.021,0 c 1.137,0 1.844,-0.7490001 1.844,-1.6850001 -0.021,-0.9559999 -0.708,-1.684 -1.822,-1.684 z m -1.652,14.4460013 3.259,0 0,-9.7480008 -3.259,0 z M 14.851001,8.1840942 c -1.732,0 -2.505,0.947 -2.938,1.611 l 0,0.032 -0.021,0 c 0.006,-0.01 0.015,-0.021 0.021,-0.032 l 0,-1.382 -3.2600002,0 c 0.043,0.915 0,9.7480008 0,9.7480008 l 3.2600002,0 0,-5.443 c 0,-0.291 0.021,-0.583 0.107,-0.791 0.235,-0.582 0.772,-1.185 1.672,-1.185 1.18,0 1.651,0.894 1.651,2.204 l 0,5.215 3.259,0 0,-5.589 c 10e-4,-2.9950008 -1.606,-4.3880008 -3.751,-4.3880008 z"
   id="path3023"
   style="fill:#000" /></svg>