<?xml version="1.0" encoding="UTF-8" standalone="no"?>
<!-- Created with Inkscape (http://www.inkscape.org/) -->

<svg
   xmlns:dc="http://purl.org/dc/elements/1.1/"
   xmlns:cc="http://creativecommons.org/ns#"
   xmlns:rdf="http://www.w3.org/1999/02/22-rdf-syntax-ns#"
   xmlns:svg="http://www.w3.org/2000/svg"
   xmlns="http://www.w3.org/2000/svg"
   version="1.1"
   width="22.000002"
   height="25"
   viewBox="0 0 22.000002 25"
   id="Calque_1"
   xml:space="preserve"><metadata
   id="metadata13"><rdf:RDF><cc:Work
       rdf:about=""><dc:format>image/svg+xml</dc:format><dc:type
         rdf:resource="http://purl.org/dc/dcmitype/StillImage" /><dc:title></dc:title></cc:Work></rdf:RDF></metadata><defs
   id="defs11">
	

		
	</defs>

<path
   d="m 19.232001,13.573 0,-10.9650001 -2.653,-2.60800009 -7.755,0 c -1.063,0 -1.927,0.87500007 -1.927,1.95100009 l 0,5.064 c -1.481,0.195 -2.797,0.829 -3.898,1.946 -1.328,1.3540001 -2.002,3.0000001 -2.002,4.8950001 0,1.899 0.674,3.547 2.003,4.896 1.331,1.35 2.96,2.034 4.841,2.034 1.004,0 1.953,-0.203 2.785,-0.588 0.186,-0.059 0.34,-0.179 0.459,-0.354 0.117,-0.172 0.176,-0.361 0.176,-0.562 0,-0.268 -0.096,-0.508 -0.275,-0.694 -0.185,-0.194 -0.416,-0.292 -0.688,-0.292 -0.162,0 -0.316,0.043 -0.434,0.114 -0.623,0.28 -1.305,0.422 -2.023,0.422 -1.354,0 -2.526,-0.493 -3.48,-1.465 -0.951,-0.959 -1.434,-2.141 -1.434,-3.512 0,-1.37 0.482,-2.552 1.434,-3.512 0.954,-0.9709998 2.126,-1.4640001 3.48,-1.4640001 0.683,0 1.316,0.1230003 1.883,0.3660003 0.568,0.243 1.102,0.6129998 1.585,1.0999998 0.479,0.479 0.842,1.014 1.08,1.589 0.238,0.573 0.358,1.22 0.358,1.921 0,1.646 -0.33,2.483 -0.99,2.483 l -0.012,0 0,-2.483 c 0,-1.085 -0.387,-2.025 -1.15,-2.794 -0.755,-0.771 -1.683,-1.161 -2.754,-1.161 -1.073,0 -2.001,0.391 -2.761,1.16 -0.76,0.769 -1.146,1.71 -1.146,2.795 0,1.086 0.386,2.026 1.146,2.796 0.76,0.77 1.688,1.16 2.761,1.16 0.766,0 1.472,-0.209 2.104,-0.621 0.203,0.581 0.694,1.118 1.81,1.118 1.526,0 2.451,-0.945 2.779,-2.785 l 2.771,0 c 1.063,10e-4 1.927,-0.874 1.927,-1.95 z m -9.582,1.048 c -0.102,0.24 -0.243,0.454 -0.42,0.637 -0.176,0.183 -0.38,0.323 -0.623,0.43 -0.486,0.211 -1.054,0.21 -1.534,0.003 -0.242,-0.104 -0.454,-0.246 -0.631,-0.423 -0.175,-0.177 -0.317,-0.39 -0.423,-0.634 -0.104,-0.243 -0.154,-0.504 -0.154,-0.777 0,-0.272 0.051,-0.533 0.154,-0.775 0.105,-0.245 0.248,-0.459 0.423,-0.635 0.177,-0.177 0.389,-0.318 0.631,-0.423 0.242,-0.105 0.495,-0.155 0.768,-0.155 0.269,0 0.526,0.054 0.766,0.157 0.244,0.107 0.448,0.248 0.624,0.431 0.177,0.183 0.318,0.396 0.42,0.638 0.101,0.237 0.152,0.494 0.152,0.763 0,0.268 -0.052,0.525 -0.153,0.763 z m 7.017,-1.61 -2.069,0 c -0.175,-1.537 -0.802,-2.903 -1.93,-4.0500001 -0.929,-0.94 -2.007,-1.537 -3.204,-1.825 l 0,-4.556 3.985,0 0,1.188 c 0,1.076 0.864,1.951 1.927,1.951 l 1.291,0 z m -1.927,2.965 0,9.028 6.263,-4.515 z"
   id="path3045"
   style="fill:#000" /></svg>