<?xml version="1.0" encoding="UTF-8" standalone="no"?>
<!-- Created with Inkscape (http://www.inkscape.org/) -->

<svg
   xmlns:dc="http://purl.org/dc/elements/1.1/"
   xmlns:cc="http://creativecommons.org/ns#"
   xmlns:rdf="http://www.w3.org/1999/02/22-rdf-syntax-ns#"
   xmlns:svg="http://www.w3.org/2000/svg"
   xmlns="http://www.w3.org/2000/svg"
   version="1.1"
   width="22.000002"
   height="25"
   viewBox="0 0 22.000002 25"
   id="Calque_1"
   xml:space="preserve"><metadata
   id="metadata13"><rdf:RDF><cc:Work
       rdf:about=""><dc:format>image/svg+xml</dc:format><dc:type
         rdf:resource="http://purl.org/dc/dcmitype/StillImage" /><dc:title></dc:title></cc:Work></rdf:RDF></metadata><defs
   id="defs11">
	

		
	</defs>

<path
   d="m 21.830522,10.317049 c 0.052,-0.013 0.097,-0.028 0.124,-0.051 0.109,-0.091 0.046,-0.045 -0.124,0.051 z m -2.038,-0.4300008 c 1.179,-0.095 2.358,-1.704 2.015,-1.278 -0.344,0.426 -2.309,0.331 -2.309,0.331 -1.238,-4.2620014 -3.39,-4.6880014 -5.061,-4.2620014 -0.246,-1.184 3.783,-1.184 0.541,-1.231 -3.242,-0.047 -4.323,5.0200014 -4.323,5.0200014 0,0 0.049,0.331 -0.344,-0.096 -0.3929999,-0.426 -7.4179999,-3.8350014 -7.4679999,-3.2670014 -0.11,1.277 1.621,2.131 1.621,2.131 0,0 -1.081,0 -1.179,0.8520014 -0.099,0.853 2.456,1.753 2.456,1.753 0,0 -1.228,0.3310008 -1.081,1.0410008 0.147,0.711 2.407,1.185 2.407,1.185 0,0 -0.688,0.757 -0.541,1.137 0.147,0.378 1.644,0.479 1.622,0.521 -1.941,3.741 -8.25399998,1.137 -8.15599998,1.137 2.72399998,2.072 3.63099998,2.626 5.70299998,3.158 1.872,0.479 4.164,0.521 5.5719999,0.213 7.593,-1.659 8.166,-7.255 8.229,-7.255 1.071,0 1.969,-0.455 2.333,-0.659 -0.601,0.143 -2.67,-0.3440008 -2.037,-0.4310008 z"
   id="path3021"
   style="fill:#000" /></svg>