<?xml version="1.0" encoding="UTF-8" standalone="no"?>
<!-- Created with Inkscape (http://www.inkscape.org/) -->

<svg
   xmlns:dc="http://purl.org/dc/elements/1.1/"
   xmlns:cc="http://creativecommons.org/ns#"
   xmlns:rdf="http://www.w3.org/1999/02/22-rdf-syntax-ns#"
   xmlns:svg="http://www.w3.org/2000/svg"
   xmlns="http://www.w3.org/2000/svg"
   version="1.1"
   width="22.000002"
   height="25"
   viewBox="0 0 22.000002 25"
   id="Calque_1"
   xml:space="preserve"><metadata
   id="metadata13"><rdf:RDF><cc:Work
       rdf:about=""><dc:format>image/svg+xml</dc:format><dc:type
         rdf:resource="http://purl.org/dc/dcmitype/StillImage" /><dc:title></dc:title></cc:Work></rdf:RDF></metadata><defs
   id="defs11">
	

		
	</defs>

<path
   d="m 10.197578,0.35809371 c 1.795,2.95799989 2.768,5.61399989 2.986,6.24399989 -0.001,-0.016 -0.002,-0.027 -0.002,-0.027 -0.438,-4.559 -2.984,-6.21699989 -2.984,-6.21699989 z m 6.357,2.73499989 c -1.686,0.42 -2.276,1.06 -2.276,1.06 -1.687,1.666 -0.358,3.685 -0.358,3.685 3.641,-0.813 4.972,-3.753 4.972,-3.753 -0.162,1.975 -4.496,4.3080006 -4.496,4.3080006 1.433,1.379 2.804,1.213 3.708,0.684 1.199,-0.701 1.774,-2.2360006 1.774,-2.2360006 1.162,-3.41 -0.727,-5.99999989 -0.727,-5.99999989 -0.911,1.89899989 -2.597,2.25199989 -2.597,2.25199989 z m -1.992,8.5150014 c 0.308,0.72 0.463,1.506 0.463,2.357 0,1.05 -0.255,2.027 -0.765,2.936 -0.51,0.907 -1.2,1.607 -2.068,2.102 -0.868,0.495 -1.821,0.74 -2.8590003,0.74 -0.015,0 -0.029,-0.003 -0.044,-0.003 0.029,-0.001 0.055,0.001 0.084,0 0,0 7.1320003,-4.418 3.8600003,-12.9960014 0,0 -0.016,-0.05 -0.048,-0.142 0.04,0.56 0.697,10.9110014 -4.8560003,13.0490014 -0.655,-0.11 -1.275,-0.319 -1.854,-0.648 -0.868,-0.494 -1.558,-1.194 -2.067,-2.102 -0.51,-0.908 -0.766,-1.886 -0.766,-2.936 0,-1.628 0.56,-3.017 1.678,-4.1640008 1.119,-1.147 2.457,-1.721 4.015,-1.721 0.7410003,0 1.4320003,0.133 2.0760003,0.396 0.064,-0.6650006 0.302,-1.2840006 0.565,-1.7890006 -0.81,-0.289 -1.688,-0.435 -2.6340003,-0.435 -2.252,0 -4.115,0.814 -5.589,2.4420006 -1.34,1.4770008 -2.01,3.2210008 -2.01,5.2310008 0,2.028 0.708,3.801 2.124,5.317 1.416,1.516 3.241,2.275 5.475,2.275 2.2240003,0 4.0450003,-0.759 5.4610003,-2.275 1.416,-1.516 2.124,-3.289 2.124,-5.317 0,-1.086 -0.195,-2.092 -0.583,-3.021 -0.652,0.393 -1.271,0.599 -1.782,0.704 z"
   id="path3025"
   style="fill:#000" /></svg>